<?xml version="1.0" encoding="UTF-8" standalone="no"?>
<svg
   xmlns:dc="http://purl.org/dc/elements/1.1/"
   xmlns:cc="http://creativecommons.org/ns#"
   xmlns:rdf="http://www.w3.org/1999/02/22-rdf-syntax-ns#"
   xmlns:svg="http://www.w3.org/2000/svg"
   xmlns="http://www.w3.org/2000/svg"
   xmlns:sodipodi="http://sodipodi.sourceforge.net/DTD/sodipodi-0.dtd"
   xmlns:inkscape="http://www.inkscape.org/namespaces/inkscape"
   version="1.0"
   width="187.50005pt"
   height="16.378309pt"
   viewBox="0 0 187.50007 16.378307"
   preserveAspectRatio="xMidYMid meet"
   id="svg34"
   sodipodi:docname="sophi-ai.svg"
   inkscape:version="0.92.5 (2060ec1f9f, 2020-04-08)">
  <metadata
     id="metadata40">
    <rdf:RDF>
      <cc:Work
         rdf:about="">
        <dc:format>image/svg+xml</dc:format>
        <dc:type
           rdf:resource="http://purl.org/dc/dcmitype/StillImage" />
        <dc:title></dc:title>
      </cc:Work>
    </rdf:RDF>
  </metadata>
  <defs
     id="defs38" />
  <sodipodi:namedview
     pagecolor="#ffffff"
     bordercolor="#666666"
     borderopacity="1"
     objecttolerance="10"
     gridtolerance="10"
     guidetolerance="10"
     inkscape:pageopacity="0"
     inkscape:pageshadow="2"
     inkscape:window-width="3264"
     inkscape:window-height="2002"
     id="namedview36"
     showgrid="false"
     inkscape:zoom="10.488889"
     inkscape:cx="100.48095"
     inkscape:cy="-5.772621"
     inkscape:window-x="144"
     inkscape:window-y="54"
     inkscape:window-maximized="1"
     inkscape:current-layer="svg34"
     fit-margin-top="0"
     fit-margin-left="0"
     fit-margin-right="0"
     fit-margin-bottom="0"
     inkscape:pagecheckerboard="false" />
  <g
     transform="matrix(0.01814224,0,0,-0.01814224,-2.9934696,109.4138)"
     id="g32"
     style="fill:#000000;stroke:none">
    <path
       d="m 9295,6006 c -27,-13 -64,-39 -82,-57 -34,-37 -494,-653 -512,-687 -18,-34 -13,-68 15,-101 l 26,-31 h 659 660 l 24,25 c 18,17 25,35 25,64 0,37 -21,69 -269,399 -252,337 -272,361 -322,386 -70,35 -153,36 -224,2 z m 293,-232 c 67,-33 102,-82 102,-142 0,-47 -17,-87 -49,-116 -30,-27 -26,-42 16,-71 44,-29 23,-34 -42,-9 -25,9 -80,16 -145,17 -58,1 -113,6 -122,11 -17,7 -17,6 -3,-20 38,-73 7,-147 -79,-189 -50,-25 -65,-27 -128,-23 -48,4 -82,1 -104,-8 -19,-8 -41,-14 -51,-14 -14,1 -12,5 10,21 34,26 34,33 -3,76 -57,64 -32,155 55,205 43,24 130,31 193,15 l 33,-9 -21,34 c -35,58 -25,130 26,182 47,47 99,66 185,66 61,0 85,-5 127,-26 z"
       id="path2"
       inkscape:connector-curvature="0" />
    <path
       d="m 9330,5615 c 0,-18 5,-25 20,-25 15,0 20,7 20,25 0,18 -5,25 -20,25 -15,0 -20,-7 -20,-25 z"
       id="path4"
       inkscape:connector-curvature="0" />
    <path
       d="m 9422,5618 c 2,-15 10,-23 23,-23 30,0 27,39 -3,43 -20,3 -23,0 -20,-20 z"
       id="path6"
       inkscape:connector-curvature="0" />
    <path
       d="m 9512,5618 c 2,-15 10,-23 23,-23 30,0 27,39 -3,43 -20,3 -23,0 -20,-20 z"
       id="path8"
       inkscape:connector-curvature="0" />
    <path
       d="m 9053,5393 c -7,-3 -13,-13 -13,-24 0,-14 7,-19 25,-19 18,0 25,5 25,19 0,20 -17,31 -37,24 z"
       id="path10"
       inkscape:connector-curvature="0" />
    <path
       d="m 9130,5390 c -18,-11 -4,-40 20,-40 13,0 20,7 20,19 0,22 -21,33 -40,21 z"
       id="path12"
       inkscape:connector-curvature="0" />
    <path
       d="m 9210,5390 c -18,-11 -4,-40 20,-40 13,0 20,7 20,19 0,22 -21,33 -40,21 z"
       id="path14"
       inkscape:connector-curvature="0" />
    <path
       d="m 320,5969 c -55,-25 -105,-71 -133,-124 -17,-31 -22,-58 -22,-115 0,-87 20,-132 82,-192 78,-76 47,-72 721,-78 583,-5 604,-6 618,-24 8,-11 14,-34 14,-52 0,-66 24,-64 -666,-64 -429,0 -631,-3 -653,-11 -63,-22 -80,-102 -32,-150 l 29,-29 h 650 c 723,0 703,-2 775,68 139,134 101,354 -76,433 l -52,24 -595,3 c -531,2 -596,4 -612,19 -24,22 -23,78 2,103 20,20 33,20 650,20 466,0 636,3 655,12 58,26 71,103 26,149 l -29,29 h -654 c -635,0 -654,-1 -698,-21 z"
       id="path16"
       inkscape:connector-curvature="0" />
    <path
       d="m 2246,5974 c -46,-16 -91,-49 -140,-102 -193,-203 -135,-591 106,-711 l 61,-31 h 521 521 l 60,29 c 106,50 185,155 219,292 20,80 20,135 1,217 -30,126 -114,243 -212,293 l -48,24 -525,2 c -437,2 -532,-1 -564,-13 z m 1045,-188 c 43,-18 82,-54 106,-97 14,-26 18,-56 18,-130 0,-89 -2,-99 -30,-144 -20,-32 -45,-56 -75,-72 l -45,-24 -481,3 -482,3 -39,31 c -102,81 -121,274 -35,376 57,68 56,68 568,68 375,0 468,-3 495,-14 z"
       id="path18"
       inkscape:connector-curvature="0" />
    <path
       d="m 2735,5671 c -59,-26 -92,-115 -63,-171 47,-88 186,-93 238,-7 31,50 26,100 -13,144 -30,32 -40,36 -88,39 -30,2 -63,0 -74,-5 z"
       id="path20"
       inkscape:connector-curvature="0" />
    <path
       d="m 3836,5964 c -35,-35 -36,-92 -2,-131 l 24,-28 641,-3 640,-2 20,-27 c 26,-32 26,-53 1,-86 l -21,-26 -572,-3 c -556,-3 -573,-4 -617,-24 -56,-26 -115,-90 -129,-141 -6,-21 -11,-99 -11,-174 0,-131 1,-137 25,-163 33,-35 92,-36 132,-2 27,24 28,27 33,149 3,82 10,129 18,140 12,14 76,16 575,19 546,3 563,4 607,24 106,49 160,132 160,243 -1,109 -53,190 -155,237 l -50,24 h -646 -646 z"
       id="path22"
       inkscape:connector-curvature="0" />
    <path
       d="m 5593,5966 -28,-24 v -382 -382 l 28,-24 c 39,-33 99,-33 132,1 24,23 25,29 25,165 v 140 h 590 590 v -136 -136 l 29,-29 c 42,-42 99,-41 135,2 l 26,31 v 368 368 l -26,31 c -36,43 -93,44 -135,2 l -29,-29 v -136 -136 h -590 -590 v 140 c 0,136 -1,142 -25,165 -33,34 -93,34 -132,1 z"
       id="path24"
       inkscape:connector-curvature="0" />
    <path
       d="m 7349,5961 -29,-29 v -372 -372 l 29,-29 c 40,-39 97,-41 135,-3 l 26,27 v 369 c 0,262 -3,376 -12,391 -18,34 -40,46 -81,47 -29,0 -45,-7 -68,-29 z"
       id="path26"
       inkscape:connector-curvature="0" />
    <path
       d="m 10357,5979 c -43,-25 -47,-60 -47,-419 0,-362 4,-395 48,-419 37,-20 91,-13 117,14 l 25,24 v 381 381 l -25,24 c -26,27 -84,34 -118,14 z"
       id="path28"
       inkscape:connector-curvature="0" />
    <path
       d="m 7774,5650 c -32,-13 -64,-59 -64,-91 0,-18 11,-41 29,-61 l 29,-33 h 325 c 348,0 363,2 386,52 23,51 5,104 -44,128 -28,12 -82,15 -337,14 -166,0 -313,-4 -324,-9 z"
       id="path30"
       inkscape:connector-curvature="0" />
  </g>
</svg>
